<?xml version="1.0" encoding="UTF-8" standalone="no"?>
<svg
   xmlns:dc="http://purl.org/dc/elements/1.1/"
   xmlns:cc="http://creativecommons.org/ns#"
   xmlns:rdf="http://www.w3.org/1999/02/22-rdf-syntax-ns#"
   xmlns:svg="http://www.w3.org/2000/svg"
   xmlns="http://www.w3.org/2000/svg"
   xmlns:sodipodi="http://sodipodi.sourceforge.net/DTD/sodipodi-0.dtd"
   xmlns:inkscape="http://www.inkscape.org/namespaces/inkscape"
   width="196"
   height="53"
   viewBox="0 0 196 53"
   version="1.1"
   id="svg8"
   inkscape:version="1.0.2 (e86c870879, 2021-01-15)"
   sodipodi:docname="catalogs_icon.svg">
  <defs
     id="defs2">
    <rect
       x="165.09782"
       y="192.36598"
       width="187.65245"
       height="29.873447"
       id="rect845" />
    <rect
       x="146.56233"
       y="206.39801"
       width="806.02655"
       height="590.19019"
       id="rect835" />
    <rect
       x="165.09782"
       y="192.36598"
       width="187.65245"
       height="29.873447"
       id="rect845-7" />
    <rect
       x="165.09782"
       y="192.36598"
       width="187.65245"
       height="29.873447"
       id="rect858" />
    <rect
       x="165.09782"
       y="192.36598"
       width="187.65245"
       height="29.873447"
       id="rect845-0" />
    <rect
       x="165.09782"
       y="192.36598"
       width="187.65245"
       height="29.873447"
       id="rect916" />
    <rect
       x="165.09782"
       y="192.36598"
       width="98.585152"
       height="45.476025"
       id="rect845-7-2" />
    <rect
       x="165.09782"
       y="192.36598"
       width="187.65245"
       height="29.873447"
       id="rect952" />
  </defs>
  <sodipodi:namedview
     id="base"
     pagecolor="#ffffff"
     bordercolor="#666666"
     borderopacity="1.0"
     inkscape:pageopacity="0.0"
     inkscape:pageshadow="2"
     inkscape:zoom="1.9001715"
     inkscape:cx="-10.068462"
     inkscape:cy="44.373656"
     inkscape:document-units="px"
     inkscape:current-layer="g1070"
     showgrid="false"
     units="px"
     inkscape:window-width="1364"
     inkscape:window-height="744"
     inkscape:window-x="0"
     inkscape:window-y="0"
     inkscape:window-maximized="0"
     inkscape:snap-global="false"
     inkscape:document-rotation="0" />
  <metadata
     id="metadata5">
    <rdf:RDF>
      <cc:Work
         rdf:about="">
        <dc:format>image/svg+xml</dc:format>
        <dc:type
           rdf:resource="http://purl.org/dc/dcmitype/StillImage" />
        <dc:title></dc:title>
      </cc:Work>
    </rdf:RDF>
  </metadata>
  <g
     inkscape:label="Layer 1"
     inkscape:groupmode="layer"
     id="layer1"
     transform="translate(0,-93.799984)">
    <g
       id="g831">
      <text
         xml:space="preserve"
         style="font-style:normal;font-weight:normal;font-size:10.5833px;line-height:1.25;font-family:sans-serif;letter-spacing:0px;word-spacing:0px;fill:#000000;fill-opacity:1;stroke:none;stroke-width:0.264583"
         x="174.625"
         y="196.45831"
         id="text863" />
      <text
         xml:space="preserve"
         id="text833"
         style="font-size:26.6667px;line-height:1.25;font-family:sans-serif;-inkscape-font-specification:'sans-serif, Normal';letter-spacing:0px;word-spacing:0px;white-space:pre;shape-inside:url(#rect835);" />
      <g
         id="g1070"
         transform="translate(-0.39922876,1.8569078)">
        <g
           aria-label="S"
           transform="translate(-39.949286,-93.81619)"
           id="text843-2-9"
           style="font-size:40px;line-height:0;font-family:sans-serif;-inkscape-font-specification:'sans-serif, Normal';letter-spacing:0px;word-spacing:0px;white-space:pre;shape-inside:url(#rect845-7-2);fill:#fcdd09;fill-opacity:1;stroke:#078930;stroke-width:8;stroke-linecap:round;stroke-linejoin:round;stroke-miterlimit:4;stroke-dasharray:none;stroke-opacity:1">
          <path
             id="path1018"
             style="font-style:normal;font-variant:normal;font-weight:normal;font-stretch:normal;font-size:48px;line-height:1;font-family:Hetilica;-inkscape-font-specification:Hetilica;text-align:center;text-anchor:middle;fill:#fcdd09;fill-opacity:1;stroke:#078930;stroke-width:8;stroke-linecap:round;stroke-linejoin:round;stroke-miterlimit:4;stroke-dasharray:none;stroke-opacity:1"
             d="m 347.01172,88.361328 c 0.6459,0.913671 1.11928,2.311952 1.45508,4.041016 -1.02628,0.110317 -2.04357,0.283524 -3.04688,0.554687 -1.056,0.256 -2.06344,0.655219 -3.02344,1.199219 -0.96,0.512 -1.87232,1.137047 -2.73632,1.873047 -0.864,0.704 -1.66439,1.487562 -2.40039,2.351562 -0.704,0.864 -1.31222,1.744621 -1.82422,2.640621 -0.224,0.384 -0.39935,0.80005 -0.52735,1.24805 -0.16,0.416 -0.24023,0.84692 -0.24023,1.29492 0,0.416 0.0802,0.84888 0.24023,1.29688 0.16,0.416 0.32047,0.80034 0.48047,1.15234 0.448,0.864 1.02256,1.64756 1.72656,2.35156 0.736,0.704 1.48786,1.3271 2.25586,1.8711 0.832,0.576 1.68093,1.10398 2.54493,1.58398 0.864,0.448 1.7595,0.88088 2.6875,1.29688 0.768,0.352 1.53668,0.65611 2.30468,0.91211 0.46313,0.1482 0.90893,0.31373 1.36133,0.47265 -0.0748,0.66012 -0.14824,1.32191 -0.23047,1.97071 -0.089,-0.0485 -0.17854,-0.0884 -0.26758,-0.13868 -0.704,-0.448 -1.27856,-1.02451 -1.72656,-1.72851 -0.096,-0.128 -0.25647,-0.19141 -0.48047,-0.19141 -0.192,0 -0.401,0.0317 -0.625,0.0957 -0.192,0.064 -0.38417,0.14423 -0.57617,0.24023 l -0.38281,0.19141 c -0.64,0.352 -1.23335,0.75122 -1.77735,1.19921 -0.512,0.41601 -1.02315,0.88058 -1.53515,1.39258 -0.48,0.48 -0.94458,0.99116 -1.39258,1.53516 -0.416,0.544 -0.79839,1.12051 -1.15039,1.72852 -0.16,0.288 -0.32047,0.62381 -0.48047,1.00781 -0.128,0.384 -0.0814,0.75151 0.14258,1.10351 0.544,0.8 1.24928,1.42505 2.11328,1.87305 0.896,0.448 1.7915,0.84722 2.6875,1.19922 1.088,0.448 2.20738,0.76894 3.35938,0.96094 0.10422,0.0203 0.20658,0.0352 0.31054,0.0547 -0.47995,2.15475 -0.97313,3.95591 -1.44531,5.11914 3.42551,0.34924 5.73438,0.42579 5.73438,0.42579 0,0 0.33748,-2.00521 0.77734,-4.93946 0.62372,0.0224 1.24737,0.0273 1.87109,0.0117 1.312,0 2.59185,-0.12876 3.83985,-0.38476 1.248,-0.256 2.44956,-0.63839 3.60156,-1.1504 1.184,-0.544 2.27167,-1.28098 3.26367,-2.20898 0.928,-0.832 1.7918,-1.71262 2.5918,-2.64062 0.832,-0.96 1.48875,-2.04768 1.96875,-3.26368 0.16,-0.352 0.23828,-0.68781 0.23828,-1.00781 0,-0.352 -0.0317,-0.70464 -0.0957,-1.05664 -0.256,-1.056 -0.71863,-2.00003 -1.39063,-2.83203 -0.64,-0.864 -1.37698,-1.64756 -2.20898,-2.35156 -0.864,-0.704 -1.79121,-1.3271 -2.78321,-1.8711 -0.992,-0.576 -2.00139,-1.08911 -3.02539,-1.53711 -0.832,-0.384 -1.67897,-0.71981 -2.54297,-1.00781 -0.832,-0.288 -1.68092,-0.60698 -2.54492,-0.95898 -0.12318,-0.0485 -0.24444,-0.101 -0.36719,-0.15039 0.051,-0.97473 0.10012,-1.94734 0.12696,-2.89063 0.016,0.006 0.0329,0.01 0.0488,0.0156 0.608,0.256 1.18451,0.54523 1.72851,0.86523 0.544,0.32 1.04028,0.70434 1.48828,1.15234 0.256,0.256 0.60669,0.30258 1.05469,0.14258 0.448,-0.192 0.78381,-0.35051 1.00781,-0.47851 0.64,-0.32 1.21652,-0.70435 1.72852,-1.15235 0.544,-0.448 1.07198,-0.91257 1.58398,-1.39258 0.48,-0.47999 0.92775,-0.99115 1.34375,-1.535151 0.448,-0.544 0.84917,-1.120516 1.20117,-1.728516 0.128,-0.224 0.27164,-0.559812 0.43165,-1.007812 0.16,-0.48 0.12829,-0.847516 -0.0957,-1.103516 -0.736,-0.768 -1.5998,-1.361344 -2.59179,-1.777344 -0.96001,-0.416 -1.93769,-0.766687 -2.92969,-1.054687 -1.152,-0.352 -2.33478,-0.592703 -3.55078,-0.720703 -0.97318,-0.12805 -1.94675,-0.216642 -2.91993,-0.283203 -0.25551,-1.47233 -0.61093,-2.706034 -1.10351,-3.583985 z m -0.8711,12.419922 c 0.9981,0.0475 1.9844,0.1669 2.96485,0.32031 -8.4e-4,0.60536 0.004,1.20465 -0.01,1.82813 -0.34885,-0.21509 -0.69891,-0.42827 -1.03515,-0.66016 -0.672,-0.448 -1.31192,-0.94428 -1.91993,-1.48828 z m 6.64649,15.66602 c 0.87419,0.43376 1.71907,0.91731 2.52148,1.4707 0.224,0.16 0.44788,0.33534 0.67188,0.52734 l 0.67187,0.48047 c -1.152,-0.128 -2.2882,-0.3053 -3.4082,-0.5293 -0.22329,-0.051 -0.43941,-0.12033 -0.66016,-0.17773 0.0693,-0.58569 0.13604,-1.1703 0.20313,-1.77148 z"
             transform="translate(-137.05338,101.80807)" />
        </g>
        <g
           aria-label="Catalogo"
           transform="translate(-177.00267,-85.808102)"
           id="text843"
           style="font-size:40px;line-height:0;font-family:sans-serif;-inkscape-font-specification:'sans-serif, Normal';letter-spacing:0px;word-spacing:0px;white-space:pre;shape-inside:url(#rect845);fill:#fcdd09;fill-opacity:1;stroke:#078930;stroke-width:8;stroke-linecap:round;stroke-linejoin:round;stroke-miterlimit:4;stroke-dasharray:none;stroke-opacity:1">
          <path
             d="m 200.92386,209.88526 q 0.0533,0.16 -0.0267,0.34666 -0.08,0.18667 -0.21333,0.34667 -0.13334,0.16 -0.32,0.29333 -0.16,0.13334 -0.26667,0.21334 -0.56,0.42667 -1.22667,0.74667 -0.64,0.29333 -1.30667,0.53333 -0.64,0.24 -1.36,0.45333 -0.72,0.21334 -1.41333,0.18667 -1.28001,0 -2.50667,-0.26667 -1.20001,-0.24 -2.40001,-0.77333 -1.14667,-0.50667 -2.21333,-1.22667 -1.06667,-0.74667 -2.00001,-1.65333 -0.93333,-0.93334 -1.68,-2.00001 -0.72,-1.06667 -1.2,-2.24 -0.45333,-1.14667 -0.61333,-2.37334 -0.18667,-1.22666 0.10666,-2.45333 0.26667,-1.14667 0.96,-2.05334 0.69334,-0.90667 1.60001,-1.65333 0.64,-0.53334 1.36,-0.96001 0.74667,-0.42666 1.49333,-0.8 0.82667,-0.37333 1.70667,-0.69333 0.88,-0.32 1.76,-0.53333 1.25334,-0.29334 2.61334,-0.48001 1.36,-0.21333 2.66667,0.10667 0.77334,0.21334 1.41334,0.56 0.66666,0.32 1.09333,1.09334 0.56,0.98667 0.90667,2.08 0.37333,1.09333 0.69333,2.21334 0.0533,0.18666 -0.0267,0.37333 -0.0533,0.16 -0.21334,0.32 -0.13333,0.16 -0.29333,0.29333 -0.16,0.13334 -0.26667,0.21334 -0.58667,0.42666 -1.22667,0.74667 -0.64,0.29333 -1.33333,0.53333 -0.66667,0.24 -1.36,0.42667 -0.69334,0.16 -1.41334,0.21333 -0.13333,0 -0.34667,0.0267 -0.18666,0 -0.42666,-0.0267 -0.21334,-0.0533 -0.4,-0.13333 -0.16,-0.08 -0.21334,-0.26667 -0.26666,-0.85334 -0.53333,-1.70667 -0.26667,-0.85333 -0.64,-1.68 -0.13334,-0.32 -0.32,-0.64 -0.16,-0.34667 -0.37334,-0.64 -0.37333,-0.26667 -0.8,-0.48 -0.29333,0.50666 -0.48,1.06666 -0.16,0.53334 -0.21333,1.09334 -0.0533,1.01333 0.16,2 0.24,0.96 0.66667,1.86667 0.42666,0.90667 0.98666,1.76 0.58667,0.82667 1.25334,1.54667 1.17333,1.2 2.58667,2.08 1.44,0.88001 3.04,1.36001 0.34667,0.10666 0.74667,0.16 0.13333,0.0267 0.26667,0.0533 0.16,0 0.29333,0 0.0267,0.0267 0.0533,0.0267 0.32,-0.0267 0.69333,0.0267 0.37333,0.0533 0.50667,0.37334 z m -11.41335,-13.54669 q -0.16,0.0533 -0.21333,0.08 -0.0533,0.0267 0.24,-0.08 z"
             style="font-style:normal;font-variant:normal;font-weight:normal;font-stretch:normal;font-size:26.6667px;line-height:1;font-family:Hetilica;-inkscape-font-specification:Hetilica;text-align:center;text-anchor:middle;fill:#fcdd09;fill-opacity:1;stroke:#078930;stroke-width:8;stroke-linecap:round;stroke-linejoin:round;stroke-miterlimit:4;stroke-dasharray:none;stroke-opacity:1"
             id="path1067" />
          <path
             d="m 218.97718,209.53859 q 0.0533,0.18667 -0.0267,0.37333 -0.08,0.16 -0.21333,0.32 -0.13334,0.16 -0.32,0.29334 -0.16,0.13333 -0.26667,0.21333 -0.56,0.42667 -1.22667,0.74667 -0.64,0.29333 -1.30667,0.53333 -0.66666,0.26667 -1.38666,0.42667 -0.69334,0.16 -1.38667,0.21333 -0.13334,0 -0.34667,0 -0.18667,0.0267 -0.42667,-0.0267 -0.21333,-0.0267 -0.4,-0.10667 -0.16,-0.08 -0.21333,-0.26667 -0.26667,-0.85333 -0.50667,-1.73333 -0.24,-0.88 -0.50667,-1.76 -0.18666,-0.66667 -0.37333,-1.30667 -0.18667,-0.66667 -0.37333,-1.33334 h -3.38667 q -0.29334,0.93334 -0.56,1.89334 -0.26667,0.93333 -0.53334,1.86667 -0.13333,0.42666 -0.64,0.77333 -0.50667,0.32 -0.85333,0.53333 -0.66667,0.37334 -1.38667,0.66667 -0.72,0.29334 -1.46667,0.50667 -0.16,0.0533 -0.72,0.16 -0.58667,0.13333 -1.14667,0.16 -0.58667,0.0267 -0.98667,-0.13333 -0.42667,-0.13334 -0.29333,-0.64 0.93333,-3.20001 1.89333,-6.34668 0.93334,-3.17334 2.10667,-6.29334 0.16,-0.4 0.29334,-0.8 0.16,-0.4 0.34666,-0.77334 0.42667,-0.90666 1.22667,-1.54666 0.74667,-0.61334 1.57334,-1.12001 0.82667,-0.50666 1.70667,-0.93333 0.88,-0.42667 1.84,-0.74667 0.98667,-0.34666 1.94667,-0.48 0.66667,-0.10667 1.36,-0.13333 0.72,-0.0533 1.33333,0.24 0.61334,0.26667 0.85334,0.90667 0.26667,0.61333 0.48,1.2 0.26667,0.74667 0.48,1.49333 0.24,0.72 0.48,1.49334 0.88,2.85334 1.70667,5.70667 0.82667,2.85334 1.62667,5.76001 z m -12.56002,-13.25335 h 0.0267 z m 2.90667,7.38668 q -0.21333,-0.66667 -0.4,-1.33334 -0.18666,-0.66667 -0.4,-1.36 -0.13333,-0.37334 -0.24,-0.74667 -0.08,-0.37333 -0.21333,-0.74667 -0.21334,0.69334 -0.45334,1.36001 -0.21333,0.66666 -0.42666,1.33333 l -0.48,1.52 q 0.13333,-0.0267 0.21333,-0.0267 0.10667,0 0.24,0 z"
             style="font-style:normal;font-variant:normal;font-weight:normal;font-stretch:normal;font-size:26.6667px;line-height:1;font-family:Hetilica;-inkscape-font-specification:Hetilica;text-align:center;text-anchor:middle;fill:#fcdd09;fill-opacity:1;stroke:#078930;stroke-width:8;stroke-linecap:round;stroke-linejoin:round;stroke-miterlimit:4;stroke-dasharray:none;stroke-opacity:1"
             id="path1069" />
          <path
             d="m 239.77717,194.3119 q 0.53333,0 0.48,0.45334 -0.0533,0.42666 -0.34667,0.98667 -0.26666,0.53333 -0.64,1.01333 -0.34666,0.48 -0.42666,0.56 -0.98667,1.22667 -2.26667,2.10667 -0.37334,0.26667 -0.85334,0.53333 -0.45333,0.26667 -0.93333,0.26667 h -2.82667 q -0.29334,2.37334 -0.56,4.72001 -0.24,2.34667 -0.53334,4.72 0.0533,0.24 -0.10667,0.48 -0.16,0.21334 -0.37333,0.4 -0.08,0.08 -0.16,0.16 -0.08,0.08 -0.18667,0.13334 -0.42666,0.32 -0.90666,0.58667 -0.48,0.24 -0.98667,0.45333 -0.74667,0.32 -1.6,0.58667 -0.82667,0.26666 -1.62667,0.29333 h -0.21334 q -0.13333,0 -0.34666,0 -0.18667,0.0267 -0.4,0 -0.21334,-0.0267 -0.4,-0.13333 -0.16,-0.08 -0.24,-0.26667 -0.08,-0.13333 0.0267,-0.37333 0.08,-0.58667 0.13334,-1.17334 0.08,-0.58667 0.13333,-1.17333 0.29333,-2.37334 0.53333,-4.69334 0.26667,-2.34667 0.56,-4.72001 h -6.42667 q -0.53333,0 -0.45333,-0.42667 0.0533,-0.45333 0.34666,-0.98666 0.26667,-0.56 0.61334,-1.04001 0.34666,-0.50666 0.42666,-0.58666 0.50667,-0.58667 1.06667,-1.09334 0.58667,-0.53333 1.2,-0.98667 0.37334,-0.26666 0.85334,-0.53333 0.48,-0.26667 0.96,-0.26667 h 5.41334 11.06668 z"
             style="font-style:normal;font-variant:normal;font-weight:normal;font-stretch:normal;font-size:26.6667px;line-height:1;font-family:Hetilica;-inkscape-font-specification:Hetilica;text-align:center;text-anchor:middle;fill:#fcdd09;fill-opacity:1;stroke:#078930;stroke-width:8;stroke-linecap:round;stroke-linejoin:round;stroke-miterlimit:4;stroke-dasharray:none;stroke-opacity:1"
             id="path1071" />
          <path
             d="m 256.76384,209.53859 q 0.0533,0.18667 -0.0267,0.37333 -0.08,0.16 -0.21333,0.32 -0.13333,0.16 -0.32,0.29334 -0.16,0.13333 -0.26667,0.21333 -0.56,0.42667 -1.22667,0.74667 -0.64,0.29333 -1.30666,0.53333 -0.66667,0.26667 -1.38667,0.42667 -0.69334,0.16 -1.38667,0.21333 -0.13333,0 -0.34667,0 -0.18667,0.0267 -0.42667,-0.0267 -0.21333,-0.0267 -0.4,-0.10667 -0.16,-0.08 -0.21333,-0.26667 -0.26667,-0.85333 -0.50667,-1.73333 -0.24,-0.88 -0.50666,-1.76 -0.18667,-0.66667 -0.37334,-1.30667 -0.18667,-0.66667 -0.37333,-1.33334 h -3.38667 q -0.29334,0.93334 -0.56,1.89334 -0.26667,0.93333 -0.53334,1.86667 -0.13333,0.42666 -0.64,0.77333 -0.50667,0.32 -0.85333,0.53333 -0.66667,0.37334 -1.38667,0.66667 -0.72,0.29334 -1.46667,0.50667 -0.16,0.0533 -0.72,0.16 -0.58667,0.13333 -1.14667,0.16 -0.58667,0.0267 -0.98667,-0.13333 -0.42666,-0.13334 -0.29333,-0.64 0.93333,-3.20001 1.89334,-6.34668 0.93333,-3.17334 2.10666,-6.29334 0.16,-0.4 0.29334,-0.8 0.16,-0.4 0.34667,-0.77334 0.42666,-0.90666 1.22666,-1.54666 0.74667,-0.61334 1.57334,-1.12001 0.82667,-0.50666 1.70667,-0.93333 0.88,-0.42667 1.84,-0.74667 0.98667,-0.34666 1.94667,-0.48 0.66667,-0.10667 1.36,-0.13333 0.72,-0.0533 1.33334,0.24 0.61333,0.26667 0.85333,0.90667 0.26667,0.61333 0.48,1.2 0.26667,0.74667 0.48,1.49333 0.24,0.72 0.48,1.49334 0.88,2.85334 1.70667,5.70667 0.82667,2.85334 1.62667,5.76001 z m -12.56002,-13.25335 h 0.0267 z m 2.90667,7.38668 q -0.21333,-0.66667 -0.4,-1.33334 -0.18666,-0.66667 -0.4,-1.36 -0.13333,-0.37334 -0.24,-0.74667 -0.08,-0.37333 -0.21333,-0.74667 -0.21333,0.69334 -0.45333,1.36001 -0.21334,0.66666 -0.42667,1.33333 l -0.48,1.52 q 0.13333,-0.0267 0.21333,-0.0267 0.10667,0 0.24,0 z"
             style="font-style:normal;font-variant:normal;font-weight:normal;font-stretch:normal;font-size:26.6667px;line-height:1;font-family:Hetilica;-inkscape-font-specification:Hetilica;text-align:center;text-anchor:middle;fill:#fcdd09;fill-opacity:1;stroke:#078930;stroke-width:8;stroke-linecap:round;stroke-linejoin:round;stroke-miterlimit:4;stroke-dasharray:none;stroke-opacity:1"
             id="path1073" />
          <path
             d="m 273.56382,206.44525 q 0.50667,0 0.45334,0.45334 -0.0267,0.42666 -0.32,0.98666 -0.29334,0.53334 -0.64,1.04001 -0.34667,0.48 -0.42667,0.56 -0.50667,0.58666 -1.06667,1.12 -0.56,0.50666 -1.2,0.96 -0.37333,0.26667 -0.85333,0.53333 -0.45334,0.26667 -0.96001,0.26667 h -0.16 -9.06667 q -0.53334,0.13333 -1.20001,0.18667 h -0.18666 q -0.13334,0 -0.34667,0 -0.21333,0 -0.42667,-0.0267 -0.21333,-0.0267 -0.4,-0.10667 -0.16,-0.08 -0.24,-0.26666 -0.08,-0.16 0.0267,-0.4 0.13333,-0.96001 0.21333,-1.92001 0.10667,-0.96 0.24,-1.89333 0.32,-2.82667 0.64,-5.62668 0.32,-2.8 0.64,-5.62667 0.29334,-0.53333 0.80001,-0.85333 0.16,-0.10667 0.32,-0.21334 0.18666,-0.10666 0.37333,-0.24 0.66667,-0.37333 1.38667,-0.66667 0.72,-0.29333 1.46667,-0.50666 0.58666,-0.16 1.2,-0.26667 0.61333,-0.10667 1.22667,-0.0267 0.48,0 0.72,0.37334 v 0.37333 q -0.13334,0.96 -0.24,1.92 -0.10667,0.96 -0.21334,1.94667 -0.21333,2 -0.45333,3.97334 -0.24,1.94667 -0.45333,3.94667 h 9.14667 z"
             style="font-style:normal;font-variant:normal;font-weight:normal;font-stretch:normal;font-size:26.6667px;line-height:1;font-family:Hetilica;-inkscape-font-specification:Hetilica;text-align:center;text-anchor:middle;fill:#fcdd09;fill-opacity:1;stroke:#078930;stroke-width:8;stroke-linecap:round;stroke-linejoin:round;stroke-miterlimit:4;stroke-dasharray:none;stroke-opacity:1"
             id="path1075" />
          <path
             d="m 294.52383,196.95191 q 0.72,1.14666 0.93334,2.42667 0.21333,1.25333 0.08,2.58667 -0.26667,2.24 -1.49334,4 -1.2,1.73334 -2.93334,3.01334 -1.73333,1.28 -3.81333,2.13333 -2.05334,0.82667 -4.02668,1.25334 -1.65333,0.37333 -3.30667,0.29333 -0.13333,0 -0.29333,0 -0.16,0 -0.29333,-0.0267 -0.74667,-0.08 -1.46667,-0.26667 -0.69334,-0.16 -1.36,-0.45333 -1.14667,-0.50667 -2.08001,-1.36001 -0.93333,-0.88 -1.49333,-2 -0.64,-1.25333 -0.74667,-2.61334 -0.13333,-1.38666 0.18667,-2.72 0.29333,-1.33333 0.96,-2.56 0.66667,-1.22667 1.62667,-2.18667 1.65333,-1.68 3.73334,-2.77334 2.08,-1.09333 4.32,-1.73333 1.86667,-0.53334 3.81334,-0.64 1.97334,-0.10667 3.81334,0.53333 1.2,0.42667 2.18667,1.22667 1.01333,0.77333 1.65333,1.86667 z m -11.04001,0.10666 q -0.42667,-0.10666 -0.93334,-0.16 -0.0533,0 -0.13333,0 -0.0533,-0.0267 -0.10667,-0.0267 -0.0533,0.0533 -0.08,0.0533 l -0.16,0.16 q -0.10666,0.10667 -0.21333,0.21333 -0.10667,0.10667 -0.21333,0.24 -0.13334,0.16 -0.26667,0.34667 -0.13333,0.16 -0.26667,0.32 -1.2,1.81334 -1.38667,3.92001 -0.0533,1.44 0.4,2.77333 0.45334,1.30667 1.41334,2.37334 1.14667,1.14667 2.77334,1.65334 0.42666,0.10666 0.90666,0.16 0.08,0.0267 0.26667,0.0267 0.0533,-0.0533 0.08,-0.0533 l 0.16,-0.16 q 0.10667,-0.10667 0.21333,-0.21334 0.10667,-0.10666 0.21334,-0.24 0.13333,-0.16 0.26667,-0.32 0.13333,-0.16 0.26666,-0.34666 1.12,-1.70667 1.36,-3.76001 0.0267,-0.0533 0.0267,-0.13333 0.0533,-1.44 -0.4,-2.77334 -0.45333,-1.33333 -1.41333,-2.4 -1.14667,-1.14667 -2.77334,-1.65334 z"
             style="font-style:normal;font-variant:normal;font-weight:normal;font-stretch:normal;font-size:26.6667px;line-height:1;font-family:Hetilica;-inkscape-font-specification:Hetilica;text-align:center;text-anchor:middle;fill:#fcdd09;fill-opacity:1;stroke:#078930;stroke-width:8;stroke-linecap:round;stroke-linejoin:round;stroke-miterlimit:4;stroke-dasharray:none;stroke-opacity:1"
             id="path1077" />
          <path
             d="m 313.16384,202.84525 q 0.34666,0.26666 0.61333,0.64 0.29333,0.34667 0.26667,0.8 0,0.45333 -0.08,0.88 -0.0533,0.42667 -0.16,0.85333 -0.29334,1.49334 -0.66667,2.96001 -0.34667,1.44 -0.72,2.90667 -0.0533,0.21333 -0.24,0.4 -0.18667,0.18667 -0.42667,0.34667 -0.21333,0.18666 -0.45333,0.32 -0.21334,0.13333 -0.37334,0.24 -0.66666,0.37333 -1.38667,0.64 -0.72,0.29333 -1.46666,0.50667 -0.18667,0.0533 -0.74667,0.16 -0.56,0.13333 -1.14667,0.16 -0.56,0.0533 -0.98667,-0.10667 -0.4,-0.13333 -0.26666,-0.64 0.13333,-0.45334 0.24,-0.93334 0.10666,-0.48 0.24,-0.93333 -0.0533,0.0267 -0.10667,0.0533 -0.0267,0 -0.08,0.0267 -0.64,0.21333 -1.38667,0.42667 -0.72,0.21333 -1.41333,0.21333 -1.41334,-0.0267 -2.77334,-0.34667 -1.33334,-0.32 -2.53334,-1.09333 -1.04,-0.69334 -1.89333,-1.68 -0.85334,-0.98667 -1.36001,-2.16001 -0.53333,-1.22666 -0.61333,-2.58667 -0.10667,-1.38666 0.21333,-2.69333 0.24,-1.01334 0.80001,-1.92001 0.56,-0.93333 1.30666,-1.65333 1.28001,-1.25334 2.80001,-2.10667 1.52,-0.85333 3.2,-1.49334 1.36,-0.53333 2.88,-0.88 1.52001,-0.37333 3.01334,-0.4 0.50667,0 1.01334,0.0267 0.50666,0 0.98666,0.13333 0.37334,0.10667 0.74667,0.21334 0.37334,0.10666 0.66667,0.37333 0.29333,0.26667 0.45333,0.50667 0.18667,0.24 0.26667,0.61333 0.16,0.61334 0.21333,1.25334 0.0533,0.64 0.10667,1.28 0.0267,0.4 -0.24,0.69333 -0.26667,0.26667 -0.56,0.50667 -0.58667,0.42667 -1.25333,0.74667 -0.64001,0.29333 -1.30667,0.56 -0.66667,0.24 -1.38667,0.4 -0.69334,0.16 -1.38667,0.21333 -0.08,0 -0.32,0.0267 -0.21333,0 -0.45333,-0.0267 -0.24,-0.0267 -0.42667,-0.10666 -0.18667,-0.10667 -0.18667,-0.26667 -0.0533,-0.61334 -0.10667,-1.2 -0.0533,-0.61334 -0.18666,-1.2 -0.0533,-0.21334 -0.13334,-0.40001 -0.0533,-0.21333 -0.18666,-0.37333 -0.24,-0.21333 -0.61334,-0.34667 l -0.56,-0.08 -0.08,0.08 q -0.08,0.0533 -0.13333,0.13334 -0.34667,0.34666 -0.66667,0.74667 -0.8,1.30666 -0.96,2.90667 -0.08,1.62666 0.45333,3.14667 0.56,1.52 1.68001,2.72 1.38666,1.38667 3.25333,2 0.13334,-0.50667 0.21334,-0.98667 0.10666,-0.50666 0.16,-1.04 -0.0533,-0.45333 -0.26667,-0.8 -0.16,-0.13333 -0.34667,-0.21333 -0.16,-0.08 -0.34666,-0.16 l -0.48,-0.08 h -0.0267 q -0.29333,0 -0.61334,-0.0533 -0.32,-0.0533 -0.42666,-0.34666 -0.08,-0.16 0,-0.34667 0.08,-0.18667 0.21333,-0.34667 0.16,-0.16 0.32,-0.29333 0.16,-0.13333 0.26667,-0.21333 0.58667,-0.42667 1.22667,-0.72 0.64,-0.32001 1.30667,-0.58667 0.64,-0.21334 1.36,-0.42667 0.74666,-0.21333 1.44,-0.18667 0.74667,0 1.54667,0.10667 0.82667,0.08 1.46667,0.50667 z m -8.24001,2.90667 q -0.21334,0 -0.18667,0 0.0533,-0.0267 0.18667,0 z"
             style="font-style:normal;font-variant:normal;font-weight:normal;font-stretch:normal;font-size:26.6667px;line-height:1;font-family:Hetilica;-inkscape-font-specification:Hetilica;text-align:center;text-anchor:middle;fill:#fcdd09;fill-opacity:1;stroke:#078930;stroke-width:8;stroke-linecap:round;stroke-linejoin:round;stroke-miterlimit:4;stroke-dasharray:none;stroke-opacity:1"
             id="path1079" />
          <path
             d="m 335.05718,196.95191 q 0.72,1.14666 0.93333,2.42667 0.21334,1.25333 0.08,2.58667 -0.26667,2.24 -1.49334,4 -1.2,1.73334 -2.93334,3.01334 -1.73333,1.28 -3.81334,2.13333 -2.05333,0.82667 -4.02667,1.25334 -1.65333,0.37333 -3.30667,0.29333 -0.13333,0 -0.29333,0 -0.16,0 -0.29334,-0.0267 -0.74666,-0.08 -1.46666,-0.26667 -0.69334,-0.16 -1.36001,-0.45333 -1.14666,-0.50667 -2.08,-1.36001 -0.93333,-0.88 -1.49333,-2 -0.64,-1.25333 -0.74667,-2.61334 -0.13333,-1.38666 0.18667,-2.72 0.29333,-1.33333 0.96,-2.56 0.66666,-1.22667 1.62667,-2.18667 1.65333,-1.68 3.73333,-2.77334 2.08001,-1.09333 4.32001,-1.73333 1.86667,-0.53334 3.81334,-0.64 1.97333,-0.10667 3.81334,0.53333 1.2,0.42667 2.18667,1.22667 1.01333,0.77333 1.65333,1.86667 z m -11.04001,0.10666 q -0.42667,-0.10666 -0.93334,-0.16 -0.0533,0 -0.13333,0 -0.0533,-0.0267 -0.10667,-0.0267 -0.0533,0.0533 -0.08,0.0533 l -0.16,0.16 q -0.10667,0.10667 -0.21333,0.21333 -0.10667,0.10667 -0.21334,0.24 -0.13333,0.16 -0.26666,0.34667 -0.13334,0.16 -0.26667,0.32 -1.2,1.81334 -1.38667,3.92001 -0.0533,1.44 0.4,2.77333 0.45334,1.30667 1.41334,2.37334 1.14667,1.14667 2.77333,1.65334 0.42667,0.10666 0.90667,0.16 0.08,0.0267 0.26667,0.0267 0.0533,-0.0533 0.08,-0.0533 l 0.16,-0.16 q 0.10667,-0.10667 0.21333,-0.21334 0.10667,-0.10666 0.21334,-0.24 0.13333,-0.16 0.26666,-0.32 0.13334,-0.16 0.26667,-0.34666 1.12,-1.70667 1.36,-3.76001 0.0267,-0.0533 0.0267,-0.13333 0.0533,-1.44 -0.4,-2.77334 -0.45334,-1.33333 -1.41334,-2.4 -1.14666,-1.14667 -2.77333,-1.65334 z"
             style="font-style:normal;font-variant:normal;font-weight:normal;font-stretch:normal;font-size:26.6667px;line-height:1;font-family:Hetilica;-inkscape-font-specification:Hetilica;text-align:center;text-anchor:middle;fill:#fcdd09;fill-opacity:1;stroke:#078930;stroke-width:8;stroke-linecap:round;stroke-linejoin:round;stroke-miterlimit:4;stroke-dasharray:none;stroke-opacity:1"
             id="path1081" />
        </g>
        <g
           aria-label="Catalogo"
           transform="translate(-177.00267,-85.808102)"
           id="text843-2"
           style="font-size:40px;line-height:0;font-family:sans-serif;-inkscape-font-specification:'sans-serif, Normal';letter-spacing:0px;word-spacing:0px;white-space:pre;shape-inside:url(#rect845-7);fill:#fcdd09;fill-opacity:1;stroke:none;stroke-width:4;stroke-linecap:round;stroke-linejoin:round;stroke-miterlimit:4;stroke-dasharray:none;stroke-opacity:1">
          <path
             d="m 200.92386,209.88526 q 0.0533,0.16 -0.0267,0.34666 -0.08,0.18667 -0.21333,0.34667 -0.13334,0.16 -0.32,0.29333 -0.16,0.13334 -0.26667,0.21334 -0.56,0.42667 -1.22667,0.74667 -0.64,0.29333 -1.30667,0.53333 -0.64,0.24 -1.36,0.45333 -0.72,0.21334 -1.41333,0.18667 -1.28001,0 -2.50667,-0.26667 -1.20001,-0.24 -2.40001,-0.77333 -1.14667,-0.50667 -2.21333,-1.22667 -1.06667,-0.74667 -2.00001,-1.65333 -0.93333,-0.93334 -1.68,-2.00001 -0.72,-1.06667 -1.2,-2.24 -0.45333,-1.14667 -0.61333,-2.37334 -0.18667,-1.22666 0.10666,-2.45333 0.26667,-1.14667 0.96,-2.05334 0.69334,-0.90667 1.60001,-1.65333 0.64,-0.53334 1.36,-0.96001 0.74667,-0.42666 1.49333,-0.8 0.82667,-0.37333 1.70667,-0.69333 0.88,-0.32 1.76,-0.53333 1.25334,-0.29334 2.61334,-0.48001 1.36,-0.21333 2.66667,0.10667 0.77334,0.21334 1.41334,0.56 0.66666,0.32 1.09333,1.09334 0.56,0.98667 0.90667,2.08 0.37333,1.09333 0.69333,2.21334 0.0533,0.18666 -0.0267,0.37333 -0.0533,0.16 -0.21334,0.32 -0.13333,0.16 -0.29333,0.29333 -0.16,0.13334 -0.26667,0.21334 -0.58667,0.42666 -1.22667,0.74667 -0.64,0.29333 -1.33333,0.53333 -0.66667,0.24 -1.36,0.42667 -0.69334,0.16 -1.41334,0.21333 -0.13333,0 -0.34667,0.0267 -0.18666,0 -0.42666,-0.0267 -0.21334,-0.0533 -0.4,-0.13333 -0.16,-0.08 -0.21334,-0.26667 -0.26666,-0.85334 -0.53333,-1.70667 -0.26667,-0.85333 -0.64,-1.68 -0.13334,-0.32 -0.32,-0.64 -0.16,-0.34667 -0.37334,-0.64 -0.37333,-0.26667 -0.8,-0.48 -0.29333,0.50666 -0.48,1.06666 -0.16,0.53334 -0.21333,1.09334 -0.0533,1.01333 0.16,2 0.24,0.96 0.66667,1.86667 0.42666,0.90667 0.98666,1.76 0.58667,0.82667 1.25334,1.54667 1.17333,1.2 2.58667,2.08 1.44,0.88001 3.04,1.36001 0.34667,0.10666 0.74667,0.16 0.13333,0.0267 0.26667,0.0533 0.16,0 0.29333,0 0.0267,0.0267 0.0533,0.0267 0.32,-0.0267 0.69333,0.0267 0.37333,0.0533 0.50667,0.37334 z m -11.41335,-13.54669 q -0.16,0.0533 -0.21333,0.08 -0.0533,0.0267 0.24,-0.08 z"
             style="font-style:normal;font-variant:normal;font-weight:normal;font-stretch:normal;font-size:26.6667px;line-height:1;font-family:Hetilica;-inkscape-font-specification:Hetilica;text-align:center;text-anchor:middle;fill:#fcdd09;fill-opacity:1;stroke:none;stroke-width:4;stroke-linecap:round;stroke-linejoin:round;stroke-miterlimit:4;stroke-dasharray:none;stroke-opacity:1"
             id="path1084" />
          <path
             d="m 218.97718,209.53859 q 0.0533,0.18667 -0.0267,0.37333 -0.08,0.16 -0.21333,0.32 -0.13334,0.16 -0.32,0.29334 -0.16,0.13333 -0.26667,0.21333 -0.56,0.42667 -1.22667,0.74667 -0.64,0.29333 -1.30667,0.53333 -0.66666,0.26667 -1.38666,0.42667 -0.69334,0.16 -1.38667,0.21333 -0.13334,0 -0.34667,0 -0.18667,0.0267 -0.42667,-0.0267 -0.21333,-0.0267 -0.4,-0.10667 -0.16,-0.08 -0.21333,-0.26667 -0.26667,-0.85333 -0.50667,-1.73333 -0.24,-0.88 -0.50667,-1.76 -0.18666,-0.66667 -0.37333,-1.30667 -0.18667,-0.66667 -0.37333,-1.33334 h -3.38667 q -0.29334,0.93334 -0.56,1.89334 -0.26667,0.93333 -0.53334,1.86667 -0.13333,0.42666 -0.64,0.77333 -0.50667,0.32 -0.85333,0.53333 -0.66667,0.37334 -1.38667,0.66667 -0.72,0.29334 -1.46667,0.50667 -0.16,0.0533 -0.72,0.16 -0.58667,0.13333 -1.14667,0.16 -0.58667,0.0267 -0.98667,-0.13333 -0.42667,-0.13334 -0.29333,-0.64 0.93333,-3.20001 1.89333,-6.34668 0.93334,-3.17334 2.10667,-6.29334 0.16,-0.4 0.29334,-0.8 0.16,-0.4 0.34666,-0.77334 0.42667,-0.90666 1.22667,-1.54666 0.74667,-0.61334 1.57334,-1.12001 0.82667,-0.50666 1.70667,-0.93333 0.88,-0.42667 1.84,-0.74667 0.98667,-0.34666 1.94667,-0.48 0.66667,-0.10667 1.36,-0.13333 0.72,-0.0533 1.33333,0.24 0.61334,0.26667 0.85334,0.90667 0.26667,0.61333 0.48,1.2 0.26667,0.74667 0.48,1.49333 0.24,0.72 0.48,1.49334 0.88,2.85334 1.70667,5.70667 0.82667,2.85334 1.62667,5.76001 z m -12.56002,-13.25335 h 0.0267 z m 2.90667,7.38668 q -0.21333,-0.66667 -0.4,-1.33334 -0.18666,-0.66667 -0.4,-1.36 -0.13333,-0.37334 -0.24,-0.74667 -0.08,-0.37333 -0.21333,-0.74667 -0.21334,0.69334 -0.45334,1.36001 -0.21333,0.66666 -0.42666,1.33333 l -0.48,1.52 q 0.13333,-0.0267 0.21333,-0.0267 0.10667,0 0.24,0 z"
             style="font-style:normal;font-variant:normal;font-weight:normal;font-stretch:normal;font-size:26.6667px;line-height:1;font-family:Hetilica;-inkscape-font-specification:Hetilica;text-align:center;text-anchor:middle;fill:#fcdd09;fill-opacity:1;stroke:none;stroke-width:4;stroke-linecap:round;stroke-linejoin:round;stroke-miterlimit:4;stroke-dasharray:none;stroke-opacity:1"
             id="path1086" />
          <path
             d="m 239.77717,194.3119 q 0.53333,0 0.48,0.45334 -0.0533,0.42666 -0.34667,0.98667 -0.26666,0.53333 -0.64,1.01333 -0.34666,0.48 -0.42666,0.56 -0.98667,1.22667 -2.26667,2.10667 -0.37334,0.26667 -0.85334,0.53333 -0.45333,0.26667 -0.93333,0.26667 h -2.82667 q -0.29334,2.37334 -0.56,4.72001 -0.24,2.34667 -0.53334,4.72 0.0533,0.24 -0.10667,0.48 -0.16,0.21334 -0.37333,0.4 -0.08,0.08 -0.16,0.16 -0.08,0.08 -0.18667,0.13334 -0.42666,0.32 -0.90666,0.58667 -0.48,0.24 -0.98667,0.45333 -0.74667,0.32 -1.6,0.58667 -0.82667,0.26666 -1.62667,0.29333 h -0.21334 q -0.13333,0 -0.34666,0 -0.18667,0.0267 -0.4,0 -0.21334,-0.0267 -0.4,-0.13333 -0.16,-0.08 -0.24,-0.26667 -0.08,-0.13333 0.0267,-0.37333 0.08,-0.58667 0.13334,-1.17334 0.08,-0.58667 0.13333,-1.17333 0.29333,-2.37334 0.53333,-4.69334 0.26667,-2.34667 0.56,-4.72001 h -6.42667 q -0.53333,0 -0.45333,-0.42667 0.0533,-0.45333 0.34666,-0.98666 0.26667,-0.56 0.61334,-1.04001 0.34666,-0.50666 0.42666,-0.58666 0.50667,-0.58667 1.06667,-1.09334 0.58667,-0.53333 1.2,-0.98667 0.37334,-0.26666 0.85334,-0.53333 0.48,-0.26667 0.96,-0.26667 h 5.41334 11.06668 z"
             style="font-style:normal;font-variant:normal;font-weight:normal;font-stretch:normal;font-size:26.6667px;line-height:1;font-family:Hetilica;-inkscape-font-specification:Hetilica;text-align:center;text-anchor:middle;fill:#fcdd09;fill-opacity:1;stroke:none;stroke-width:4;stroke-linecap:round;stroke-linejoin:round;stroke-miterlimit:4;stroke-dasharray:none;stroke-opacity:1"
             id="path1088" />
          <path
             d="m 256.76384,209.53859 q 0.0533,0.18667 -0.0267,0.37333 -0.08,0.16 -0.21333,0.32 -0.13333,0.16 -0.32,0.29334 -0.16,0.13333 -0.26667,0.21333 -0.56,0.42667 -1.22667,0.74667 -0.64,0.29333 -1.30666,0.53333 -0.66667,0.26667 -1.38667,0.42667 -0.69334,0.16 -1.38667,0.21333 -0.13333,0 -0.34667,0 -0.18667,0.0267 -0.42667,-0.0267 -0.21333,-0.0267 -0.4,-0.10667 -0.16,-0.08 -0.21333,-0.26667 -0.26667,-0.85333 -0.50667,-1.73333 -0.24,-0.88 -0.50666,-1.76 -0.18667,-0.66667 -0.37334,-1.30667 -0.18667,-0.66667 -0.37333,-1.33334 h -3.38667 q -0.29334,0.93334 -0.56,1.89334 -0.26667,0.93333 -0.53334,1.86667 -0.13333,0.42666 -0.64,0.77333 -0.50667,0.32 -0.85333,0.53333 -0.66667,0.37334 -1.38667,0.66667 -0.72,0.29334 -1.46667,0.50667 -0.16,0.0533 -0.72,0.16 -0.58667,0.13333 -1.14667,0.16 -0.58667,0.0267 -0.98667,-0.13333 -0.42666,-0.13334 -0.29333,-0.64 0.93333,-3.20001 1.89334,-6.34668 0.93333,-3.17334 2.10666,-6.29334 0.16,-0.4 0.29334,-0.8 0.16,-0.4 0.34667,-0.77334 0.42666,-0.90666 1.22666,-1.54666 0.74667,-0.61334 1.57334,-1.12001 0.82667,-0.50666 1.70667,-0.93333 0.88,-0.42667 1.84,-0.74667 0.98667,-0.34666 1.94667,-0.48 0.66667,-0.10667 1.36,-0.13333 0.72,-0.0533 1.33334,0.24 0.61333,0.26667 0.85333,0.90667 0.26667,0.61333 0.48,1.2 0.26667,0.74667 0.48,1.49333 0.24,0.72 0.48,1.49334 0.88,2.85334 1.70667,5.70667 0.82667,2.85334 1.62667,5.76001 z m -12.56002,-13.25335 h 0.0267 z m 2.90667,7.38668 q -0.21333,-0.66667 -0.4,-1.33334 -0.18666,-0.66667 -0.4,-1.36 -0.13333,-0.37334 -0.24,-0.74667 -0.08,-0.37333 -0.21333,-0.74667 -0.21333,0.69334 -0.45333,1.36001 -0.21334,0.66666 -0.42667,1.33333 l -0.48,1.52 q 0.13333,-0.0267 0.21333,-0.0267 0.10667,0 0.24,0 z"
             style="font-style:normal;font-variant:normal;font-weight:normal;font-stretch:normal;font-size:26.6667px;line-height:1;font-family:Hetilica;-inkscape-font-specification:Hetilica;text-align:center;text-anchor:middle;fill:#fcdd09;fill-opacity:1;stroke:none;stroke-width:4;stroke-linecap:round;stroke-linejoin:round;stroke-miterlimit:4;stroke-dasharray:none;stroke-opacity:1"
             id="path1090" />
          <path
             d="m 273.56382,206.44525 q 0.50667,0 0.45334,0.45334 -0.0267,0.42666 -0.32,0.98666 -0.29334,0.53334 -0.64,1.04001 -0.34667,0.48 -0.42667,0.56 -0.50667,0.58666 -1.06667,1.12 -0.56,0.50666 -1.2,0.96 -0.37333,0.26667 -0.85333,0.53333 -0.45334,0.26667 -0.96001,0.26667 h -0.16 -9.06667 q -0.53334,0.13333 -1.20001,0.18667 h -0.18666 q -0.13334,0 -0.34667,0 -0.21333,0 -0.42667,-0.0267 -0.21333,-0.0267 -0.4,-0.10667 -0.16,-0.08 -0.24,-0.26666 -0.08,-0.16 0.0267,-0.4 0.13333,-0.96001 0.21333,-1.92001 0.10667,-0.96 0.24,-1.89333 0.32,-2.82667 0.64,-5.62668 0.32,-2.8 0.64,-5.62667 0.29334,-0.53333 0.80001,-0.85333 0.16,-0.10667 0.32,-0.21334 0.18666,-0.10666 0.37333,-0.24 0.66667,-0.37333 1.38667,-0.66667 0.72,-0.29333 1.46667,-0.50666 0.58666,-0.16 1.2,-0.26667 0.61333,-0.10667 1.22667,-0.0267 0.48,0 0.72,0.37334 v 0.37333 q -0.13334,0.96 -0.24,1.92 -0.10667,0.96 -0.21334,1.94667 -0.21333,2 -0.45333,3.97334 -0.24,1.94667 -0.45333,3.94667 h 9.14667 z"
             style="font-style:normal;font-variant:normal;font-weight:normal;font-stretch:normal;font-size:26.6667px;line-height:1;font-family:Hetilica;-inkscape-font-specification:Hetilica;text-align:center;text-anchor:middle;fill:#fcdd09;fill-opacity:1;stroke:none;stroke-width:4;stroke-linecap:round;stroke-linejoin:round;stroke-miterlimit:4;stroke-dasharray:none;stroke-opacity:1"
             id="path1092" />
          <path
             d="m 294.52383,196.95191 q 0.72,1.14666 0.93334,2.42667 0.21333,1.25333 0.08,2.58667 -0.26667,2.24 -1.49334,4 -1.2,1.73334 -2.93334,3.01334 -1.73333,1.28 -3.81333,2.13333 -2.05334,0.82667 -4.02668,1.25334 -1.65333,0.37333 -3.30667,0.29333 -0.13333,0 -0.29333,0 -0.16,0 -0.29333,-0.0267 -0.74667,-0.08 -1.46667,-0.26667 -0.69334,-0.16 -1.36,-0.45333 -1.14667,-0.50667 -2.08001,-1.36001 -0.93333,-0.88 -1.49333,-2 -0.64,-1.25333 -0.74667,-2.61334 -0.13333,-1.38666 0.18667,-2.72 0.29333,-1.33333 0.96,-2.56 0.66667,-1.22667 1.62667,-2.18667 1.65333,-1.68 3.73334,-2.77334 2.08,-1.09333 4.32,-1.73333 1.86667,-0.53334 3.81334,-0.64 1.97334,-0.10667 3.81334,0.53333 1.2,0.42667 2.18667,1.22667 1.01333,0.77333 1.65333,1.86667 z m -11.04001,0.10666 q -0.42667,-0.10666 -0.93334,-0.16 -0.0533,0 -0.13333,0 -0.0533,-0.0267 -0.10667,-0.0267 -0.0533,0.0533 -0.08,0.0533 l -0.16,0.16 q -0.10666,0.10667 -0.21333,0.21333 -0.10667,0.10667 -0.21333,0.24 -0.13334,0.16 -0.26667,0.34667 -0.13333,0.16 -0.26667,0.32 -1.2,1.81334 -1.38667,3.92001 -0.0533,1.44 0.4,2.77333 0.45334,1.30667 1.41334,2.37334 1.14667,1.14667 2.77334,1.65334 0.42666,0.10666 0.90666,0.16 0.08,0.0267 0.26667,0.0267 0.0533,-0.0533 0.08,-0.0533 l 0.16,-0.16 q 0.10667,-0.10667 0.21333,-0.21334 0.10667,-0.10666 0.21334,-0.24 0.13333,-0.16 0.26667,-0.32 0.13333,-0.16 0.26666,-0.34666 1.12,-1.70667 1.36,-3.76001 0.0267,-0.0533 0.0267,-0.13333 0.0533,-1.44 -0.4,-2.77334 -0.45333,-1.33333 -1.41333,-2.4 -1.14667,-1.14667 -2.77334,-1.65334 z"
             style="font-style:normal;font-variant:normal;font-weight:normal;font-stretch:normal;font-size:26.6667px;line-height:1;font-family:Hetilica;-inkscape-font-specification:Hetilica;text-align:center;text-anchor:middle;fill:#fcdd09;fill-opacity:1;stroke:none;stroke-width:4;stroke-linecap:round;stroke-linejoin:round;stroke-miterlimit:4;stroke-dasharray:none;stroke-opacity:1"
             id="path1094" />
          <path
             d="m 313.16384,202.84525 q 0.34666,0.26666 0.61333,0.64 0.29333,0.34667 0.26667,0.8 0,0.45333 -0.08,0.88 -0.0533,0.42667 -0.16,0.85333 -0.29334,1.49334 -0.66667,2.96001 -0.34667,1.44 -0.72,2.90667 -0.0533,0.21333 -0.24,0.4 -0.18667,0.18667 -0.42667,0.34667 -0.21333,0.18666 -0.45333,0.32 -0.21334,0.13333 -0.37334,0.24 -0.66666,0.37333 -1.38667,0.64 -0.72,0.29333 -1.46666,0.50667 -0.18667,0.0533 -0.74667,0.16 -0.56,0.13333 -1.14667,0.16 -0.56,0.0533 -0.98667,-0.10667 -0.4,-0.13333 -0.26666,-0.64 0.13333,-0.45334 0.24,-0.93334 0.10666,-0.48 0.24,-0.93333 -0.0533,0.0267 -0.10667,0.0533 -0.0267,0 -0.08,0.0267 -0.64,0.21333 -1.38667,0.42667 -0.72,0.21333 -1.41333,0.21333 -1.41334,-0.0267 -2.77334,-0.34667 -1.33334,-0.32 -2.53334,-1.09333 -1.04,-0.69334 -1.89333,-1.68 -0.85334,-0.98667 -1.36001,-2.16001 -0.53333,-1.22666 -0.61333,-2.58667 -0.10667,-1.38666 0.21333,-2.69333 0.24,-1.01334 0.80001,-1.92001 0.56,-0.93333 1.30666,-1.65333 1.28001,-1.25334 2.80001,-2.10667 1.52,-0.85333 3.2,-1.49334 1.36,-0.53333 2.88,-0.88 1.52001,-0.37333 3.01334,-0.4 0.50667,0 1.01334,0.0267 0.50666,0 0.98666,0.13333 0.37334,0.10667 0.74667,0.21334 0.37334,0.10666 0.66667,0.37333 0.29333,0.26667 0.45333,0.50667 0.18667,0.24 0.26667,0.61333 0.16,0.61334 0.21333,1.25334 0.0533,0.64 0.10667,1.28 0.0267,0.4 -0.24,0.69333 -0.26667,0.26667 -0.56,0.50667 -0.58667,0.42667 -1.25333,0.74667 -0.64001,0.29333 -1.30667,0.56 -0.66667,0.24 -1.38667,0.4 -0.69334,0.16 -1.38667,0.21333 -0.08,0 -0.32,0.0267 -0.21333,0 -0.45333,-0.0267 -0.24,-0.0267 -0.42667,-0.10666 -0.18667,-0.10667 -0.18667,-0.26667 -0.0533,-0.61334 -0.10667,-1.2 -0.0533,-0.61334 -0.18666,-1.2 -0.0533,-0.21334 -0.13334,-0.40001 -0.0533,-0.21333 -0.18666,-0.37333 -0.24,-0.21333 -0.61334,-0.34667 l -0.56,-0.08 -0.08,0.08 q -0.08,0.0533 -0.13333,0.13334 -0.34667,0.34666 -0.66667,0.74667 -0.8,1.30666 -0.96,2.90667 -0.08,1.62666 0.45333,3.14667 0.56,1.52 1.68001,2.72 1.38666,1.38667 3.25333,2 0.13334,-0.50667 0.21334,-0.98667 0.10666,-0.50666 0.16,-1.04 -0.0533,-0.45333 -0.26667,-0.8 -0.16,-0.13333 -0.34667,-0.21333 -0.16,-0.08 -0.34666,-0.16 l -0.48,-0.08 h -0.0267 q -0.29333,0 -0.61334,-0.0533 -0.32,-0.0533 -0.42666,-0.34666 -0.08,-0.16 0,-0.34667 0.08,-0.18667 0.21333,-0.34667 0.16,-0.16 0.32,-0.29333 0.16,-0.13333 0.26667,-0.21333 0.58667,-0.42667 1.22667,-0.72 0.64,-0.32001 1.30667,-0.58667 0.64,-0.21334 1.36,-0.42667 0.74666,-0.21333 1.44,-0.18667 0.74667,0 1.54667,0.10667 0.82667,0.08 1.46667,0.50667 z m -8.24001,2.90667 q -0.21334,0 -0.18667,0 0.0533,-0.0267 0.18667,0 z"
             style="font-style:normal;font-variant:normal;font-weight:normal;font-stretch:normal;font-size:26.6667px;line-height:1;font-family:Hetilica;-inkscape-font-specification:Hetilica;text-align:center;text-anchor:middle;fill:#fcdd09;fill-opacity:1;stroke:none;stroke-width:4;stroke-linecap:round;stroke-linejoin:round;stroke-miterlimit:4;stroke-dasharray:none;stroke-opacity:1"
             id="path1096" />
          <path
             d="m 335.05718,196.95191 q 0.72,1.14666 0.93333,2.42667 0.21334,1.25333 0.08,2.58667 -0.26667,2.24 -1.49334,4 -1.2,1.73334 -2.93334,3.01334 -1.73333,1.28 -3.81334,2.13333 -2.05333,0.82667 -4.02667,1.25334 -1.65333,0.37333 -3.30667,0.29333 -0.13333,0 -0.29333,0 -0.16,0 -0.29334,-0.0267 -0.74666,-0.08 -1.46666,-0.26667 -0.69334,-0.16 -1.36001,-0.45333 -1.14666,-0.50667 -2.08,-1.36001 -0.93333,-0.88 -1.49333,-2 -0.64,-1.25333 -0.74667,-2.61334 -0.13333,-1.38666 0.18667,-2.72 0.29333,-1.33333 0.96,-2.56 0.66666,-1.22667 1.62667,-2.18667 1.65333,-1.68 3.73333,-2.77334 2.08001,-1.09333 4.32001,-1.73333 1.86667,-0.53334 3.81334,-0.64 1.97333,-0.10667 3.81334,0.53333 1.2,0.42667 2.18667,1.22667 1.01333,0.77333 1.65333,1.86667 z m -11.04001,0.10666 q -0.42667,-0.10666 -0.93334,-0.16 -0.0533,0 -0.13333,0 -0.0533,-0.0267 -0.10667,-0.0267 -0.0533,0.0533 -0.08,0.0533 l -0.16,0.16 q -0.10667,0.10667 -0.21333,0.21333 -0.10667,0.10667 -0.21334,0.24 -0.13333,0.16 -0.26666,0.34667 -0.13334,0.16 -0.26667,0.32 -1.2,1.81334 -1.38667,3.92001 -0.0533,1.44 0.4,2.77333 0.45334,1.30667 1.41334,2.37334 1.14667,1.14667 2.77333,1.65334 0.42667,0.10666 0.90667,0.16 0.08,0.0267 0.26667,0.0267 0.0533,-0.0533 0.08,-0.0533 l 0.16,-0.16 q 0.10667,-0.10667 0.21333,-0.21334 0.10667,-0.10666 0.21334,-0.24 0.13333,-0.16 0.26666,-0.32 0.13334,-0.16 0.26667,-0.34666 1.12,-1.70667 1.36,-3.76001 0.0267,-0.0533 0.0267,-0.13333 0.0533,-1.44 -0.4,-2.77334 -0.45334,-1.33333 -1.41334,-2.4 -1.14666,-1.14667 -2.77333,-1.65334 z"
             style="font-style:normal;font-variant:normal;font-weight:normal;font-stretch:normal;font-size:26.6667px;line-height:1;font-family:Hetilica;-inkscape-font-specification:Hetilica;text-align:center;text-anchor:middle;fill:#fcdd09;fill-opacity:1;stroke:none;stroke-width:4;stroke-linecap:round;stroke-linejoin:round;stroke-miterlimit:4;stroke-dasharray:none;stroke-opacity:1"
             id="path1098" />
        </g>
        <path
           id="path1018-8"
           style="font-style:normal;font-variant:normal;font-weight:normal;font-stretch:normal;font-size:48px;line-height:1;font-family:Hetilica;-inkscape-font-specification:Hetilica;text-align:center;letter-spacing:0px;word-spacing:0px;text-anchor:middle;white-space:pre;shape-inside:url(#rect845-7-2);fill:#fcdd09;fill-opacity:1;stroke:none;stroke-width:4;stroke-linecap:round;stroke-linejoin:round;stroke-miterlimit:4;stroke-dasharray:none;stroke-opacity:1"
           d="m 170.00905,96.3532 c 0.6459,0.91367 1.11928,2.31195 1.45508,4.04102 -1.02628,0.11031 -2.04357,0.28352 -3.04688,0.55468 -1.056,0.25601 -2.06344,0.65522 -3.02344,1.19922 -0.96,0.512 -1.87232,1.13705 -2.73632,1.87305 -0.864,0.704 -1.66439,1.48756 -2.40039,2.35156 -0.704,0.864 -1.31222,1.74462 -1.82422,2.64062 -0.224,0.384 -0.39935,0.80005 -0.52735,1.24805 -0.16,0.416 -0.24023,0.84692 -0.24023,1.29492 0,0.416 0.0802,0.84888 0.24023,1.29688 0.16,0.416 0.32047,0.80034 0.48047,1.15234 0.448,0.864 1.02256,1.64756 1.72656,2.35156 0.736,0.704 1.48786,1.3271 2.25586,1.8711 0.832,0.576 1.68093,1.10398 2.54493,1.58398 0.864,0.448 1.7595,0.88088 2.6875,1.29688 0.768,0.352 1.53668,0.65611 2.30468,0.91211 0.46313,0.1482 0.90893,0.31373 1.36133,0.47265 -0.0748,0.66012 -0.14824,1.32191 -0.23047,1.97071 -0.089,-0.0485 -0.17854,-0.0884 -0.26758,-0.13868 -0.704,-0.448 -1.27856,-1.02451 -1.72656,-1.72851 -0.096,-0.128 -0.25647,-0.19141 -0.48047,-0.19141 -0.192,0 -0.401,0.0317 -0.625,0.0957 -0.192,0.064 -0.38417,0.14423 -0.57617,0.24023 l -0.38281,0.19141 c -0.64,0.352 -1.23335,0.75122 -1.77735,1.19921 -0.512,0.41601 -1.02315,0.88058 -1.53515,1.39258 -0.48,0.48 -0.94458,0.99116 -1.39258,1.53516 -0.416,0.544 -0.79839,1.12051 -1.15039,1.72852 -0.16,0.288 -0.32047,0.62381 -0.48047,1.00781 -0.128,0.384 -0.0814,0.75151 0.14258,1.10351 0.544,0.8 1.24928,1.42505 2.11328,1.87305 0.896,0.448 1.7915,0.84722 2.6875,1.19922 1.088,0.448 2.20738,0.76894 3.35938,0.96094 0.10422,0.0203 0.20658,0.0352 0.31054,0.0547 -0.47995,2.15475 -0.97313,3.95591 -1.44531,5.11914 3.42551,0.34924 5.73438,0.42579 5.73438,0.42579 0,0 0.33748,-2.00521 0.77734,-4.93946 0.62372,0.0224 1.24737,0.0273 1.87109,0.0117 1.312,0 2.59185,-0.12876 3.83985,-0.38476 1.248,-0.256 2.44956,-0.63839 3.60156,-1.1504 1.184,-0.544 2.27167,-1.28098 3.26367,-2.20898 0.928,-0.832 1.7918,-1.71262 2.5918,-2.64062 0.832,-0.96 1.48875,-2.04768 1.96875,-3.26368 0.16,-0.352 0.23828,-0.68781 0.23828,-1.00781 0,-0.352 -0.0317,-0.70464 -0.0957,-1.05664 -0.256,-1.056 -0.71863,-2.00003 -1.39063,-2.83203 -0.64,-0.864 -1.37698,-1.64756 -2.20898,-2.35156 -0.864,-0.704 -1.79121,-1.3271 -2.78321,-1.8711 -0.992,-0.576 -2.00139,-1.08911 -3.02539,-1.53711 -0.832,-0.384 -1.67897,-0.71981 -2.54297,-1.00781 -0.832,-0.288 -1.68092,-0.60698 -2.54492,-0.95898 -0.12318,-0.0485 -0.24444,-0.101 -0.36719,-0.15039 0.051,-0.97473 0.10012,-1.94734 0.12696,-2.89063 0.016,0.006 0.0329,0.01 0.0488,0.0156 0.608,0.256 1.18451,0.54523 1.72851,0.86523 0.544,0.32 1.04028,0.70434 1.48828,1.15234 0.256,0.256 0.60669,0.30258 1.05469,0.14258 0.448,-0.192 0.78381,-0.35051 1.00781,-0.47851 0.64,-0.32 1.21652,-0.70435 1.72852,-1.15235 0.544,-0.448 1.07198,-0.91257 1.58398,-1.39258 0.48,-0.47999 0.92775,-0.99115 1.34375,-1.53515 0.448,-0.544 0.84917,-1.12051 1.20117,-1.72851 0.128,-0.224 0.27164,-0.55982 0.43165,-1.00781 0.16,-0.48001 0.12829,-0.84752 -0.0957,-1.10352 -0.736,-0.768 -1.5998,-1.36135 -2.59179,-1.77735 -0.96001,-0.416 -1.93769,-0.76668 -2.92969,-1.05468 -1.152,-0.352 -2.33478,-0.59271 -3.55078,-0.7207 -0.97318,-0.12806 -1.94675,-0.21665 -2.91993,-0.28321 -0.25551,-1.47233 -0.61093,-2.70603 -1.10351,-3.58398 z m -0.8711,12.41992 c 0.9981,0.0475 1.9844,0.1669 2.96485,0.32031 -8.4e-4,0.60536 0.004,1.20465 -0.01,1.82813 -0.34885,-0.21509 -0.69891,-0.42827 -1.03515,-0.66016 -0.672,-0.448 -1.31192,-0.94428 -1.91993,-1.48828 z m 6.64649,15.66602 c 0.87419,0.43376 1.71907,0.91731 2.52148,1.4707 0.224,0.16 0.44788,0.33534 0.67188,0.52734 l 0.67187,0.48047 c -1.152,-0.128 -2.2882,-0.3053 -3.4082,-0.5293 -0.22329,-0.051 -0.43941,-0.12033 -0.66016,-0.17773 0.0693,-0.58569 0.13604,-1.1703 0.20313,-1.77148 z" />
      </g>
    </g>
  </g>
</svg>
